<svg width="20" height="20" viewBox="0 0 20 20" fill="none" xmlns="http://www.w3.org/2000/svg">
<path d="M9.90008 7.61667C10.9667 7.66667 11.2417 8.57501 11.2584 9.00001H12.7501C12.6834 7.35001 11.5084 6.34167 9.87508 6.34167C8.03341 6.34167 6.66675 7.50001 6.66675 10.1167C6.66675 11.7333 7.44175 13.65 9.86675 13.65C11.7167 13.65 12.7084 12.275 12.7334 11.1917H11.2417C11.2167 11.6833 10.8667 12.3417 9.88341 12.3917C8.79175 12.3583 8.33341 11.5083 8.33341 10.1167C8.33341 7.70834 9.40008 7.63334 9.90008 7.61667ZM10.0001 1.66667C5.40008 1.66667 1.66675 5.40001 1.66675 10C1.66675 14.6 5.40008 18.3333 10.0001 18.3333C14.6001 18.3333 18.3334 14.6 18.3334 10C18.3334 5.40001 14.6001 1.66667 10.0001 1.66667ZM10.0001 16.6667C6.32508 16.6667 3.33341 13.675 3.33341 10C3.33341 6.32501 6.32508 3.33334 10.0001 3.33334C13.6751 3.33334 16.6667 6.32501 16.6667 10C16.6667 13.675 13.6751 16.6667 10.0001 16.6667Z" fill="white"/>
</svg>
